<svg xmlns="http://www.w3.org/2000/svg" height="48" viewBox="0 96 960 960" width="48">
    <path
        d="m427.13 909.478-58.326-54.326q-122.478-113-214.239-218.858-91.76-105.859-91.76-226.098 0-96.726 65.439-161.939 65.439-65.214 160.266-65.214 53.533 0 103.294 24.663 49.761 24.664 87.957 74.381 43.196-49.717 89.956-74.381 46.761-24.663 101.05-24.663 95.774 0 161.221 65.214 65.447 65.213 65.447 161.939 0 120.239-92.62 226.217-92.619 105.978-212.337 218.217l-59.558 54.769q-22.722 20.275-53.038 20.275-30.317 0-52.752-20.196Zm21.109-540.369q-22.717-43.957-66.865-76.359-44.148-32.402-92.237-32.402-64.551 0-106.789 41.987-42.239 41.988-42.239 108.097 0 57.154 38.597 121.108 38.598 63.953 92.538 123.939 53.94 59.987 112.013 111.695 58.073 51.709 96.05 86.196 38.067-34.761 96.091-87.055 58.024-52.293 112.498-111.924 54.474-59.63 93.354-123.216 38.88-63.585 38.88-120.993 0-65.791-42.44-107.812-42.44-42.022-107.052-42.022-48.883 0-93.761 31.902-44.877 31.902-67.355 76.859-5.071 9.761-12.837 14.141-7.767 4.38-17.45 4.38-9.513 0-17.661-4.38-8.149-4.38-13.335-14.141ZM480 556.239Z" />
</svg>