<svg xmlns="http://www.w3.org/2000/svg" height="48" viewBox="0 96 960 960" width="48"><path d="M638 744q-11-11-11-26.75T639 690l78-78H407q-14.775 0-25.388-10.86Q371 590.281 371 575.14q0-15.14 10.612-25.64Q392.225 539 407 539h308l-80-81q-11-10.133-10.5-25.014t11.714-25.933Q646.661 397 662.205 397q15.545 0 27.795 11l143 143q5 6.16 8 12.813 3 6.654 3 13.4 0 6.747-3 13.267T833 602L691.006 744.911Q681 755 665.5 755T638 744ZM175 946q-29.637 0-51.319-22Q102 902 102 873V279q0-29 21.681-51 21.682-22 51.319-22h257q15.2 0 26.1 10.675 10.9 10.676 10.9 25.816 0 15.141-10.9 25.825T432 279H175v594h257q15.2 0 26.1 10.675 10.9 10.676 10.9 25.816 0 15.141-10.9 25.825T432 946H175Z"/></svg>