<svg xmlns="http://www.w3.org/2000/svg" height="48" viewBox="0 96 960 960" width="48"><path d="M677.783 953 669 885q-16-3-31.5-12T611 852l-58 14-32-56 49-46q-4-5.842-3.5-20.421T570 723l-49-47 32-55 58 13q11-10 26.409-18.844Q652.818 606.312 669 602l8.783-69H748l11 69q15 4 30.484 13.357Q804.969 624.714 816 634l57-13 34 55-51 47q6 7.211 5 21.105Q860 758 856 764l51 46-34 56-57-14q-11 12-26.5 20.5T759 885l-11 68h-70.217ZM59 922V805.448Q59 761 83.438 727.986 107.874 694.973 140 680q70-32 136-47t124.529-15q6.471 0 18.471.5t20-.5q-35 63-33 158t51 146H59Zm655.168-105Q747 817 767 796.832t20-54Q787 710 766.832 689.5t-53-20.5Q680 669 660 689.668t-20 53.5Q640 777 660.168 797t54 20ZM401 559q-76.462 0-124.731-48.269Q228 462.463 228 387q0-76.463 48.269-124.231Q324.538 215 401 215q75.462 0 124.231 47.769Q574 310.537 574 387q0 75.463-48.769 123.731Q476.462 559 401 559Z"/></svg>